<?xml version="1.0" encoding="UTF-8" standalone="no"?>
<!-- Created with Inkscape (http://www.inkscape.org/) -->

<svg
   width="64"
   height="64"
   viewBox="0 0 64 64.000003"
   version="1.1"
   id="svg5"
   xml:space="preserve"
   inkscape:version="1.2.2 (b0a8486541, 2022-12-01)"
   sodipodi:docname="icon-inkscape.svg"
   inkscape:export-filename="icon.png"
   inkscape:export-xdpi="96"
   inkscape:export-ydpi="96"
   xmlns:inkscape="http://www.inkscape.org/namespaces/inkscape"
   xmlns:sodipodi="http://sodipodi.sourceforge.net/DTD/sodipodi-0.dtd"
   xmlns="http://www.w3.org/2000/svg"
   xmlns:svg="http://www.w3.org/2000/svg"><sodipodi:namedview
     id="namedview7"
     pagecolor="#ffffff"
     bordercolor="#000000"
     borderopacity="0.25"
     inkscape:showpageshadow="2"
     inkscape:pageopacity="0.0"
     inkscape:pagecheckerboard="0"
     inkscape:deskcolor="#d1d1d1"
     inkscape:document-units="px"
     showgrid="true"
     inkscape:zoom="7.9999999"
     inkscape:cx="27.0625"
     inkscape:cy="27.375"
     inkscape:window-width="1920"
     inkscape:window-height="1019"
     inkscape:window-x="0"
     inkscape:window-y="0"
     inkscape:window-maximized="1"
     inkscape:current-layer="layer1"><inkscape:grid
       type="xygrid"
       id="grid3449"
       spacingx="2"
       spacingy="2"
       empspacing="4" /></sodipodi:namedview><defs
     id="defs2" /><g
     inkscape:label="Layer 1"
     inkscape:groupmode="layer"
     id="layer1"><g
       id="g860"><circle
         style="fill:#ff0000;fill-opacity:1;stroke:none;stroke-width:2;stroke-linejoin:round;stroke-dasharray:none"
         id="path10424"
         cx="31"
         cy="17"
         r="16" /><path
         id="circle14221"
         style="fill:#c00000;fill-opacity:1;stroke:none;stroke-width:2;stroke-linejoin:round;stroke-dasharray:none"
         d="M 40.132812,3.8671875 A 16,16 0 0 1 43,13 16,16 0 0 1 27,29 16,16 0 0 1 17.886719,26.113281 16,16 0 0 0 31,33 16,16 0 0 0 47,17 16,16 0 0 0 40.132812,3.8671875 Z" /><circle
         style="fill:none;stroke:#000000;stroke-width:2;stroke-linejoin:round;stroke-dasharray:none;stroke-opacity:1"
         id="circle14224"
         cx="31"
         cy="17"
         r="16" /></g><g
       id="g15007"
       transform="translate(-1.000001,2.9276092)"><path
         id="path6783"
         style="fill:#ffd100;fill-opacity:1;stroke:none;stroke-width:2;stroke-linejoin:round;stroke-dasharray:none"
         d="m 48.000001,9.0722672 -16,31.9999998 a 16,8 0 0 0 8,6.927734 16,8 0 0 0 16,0 16,8 0 0 0 8,-6.927734 z" /><path
         id="path14064"
         style="fill:#c8a400;fill-opacity:1;stroke:none;stroke-width:2;stroke-linejoin:round;stroke-dasharray:none"
         d="m 56,48 c 4.950127,-1.428979 7.999665,-4.069777 8,-6.927734 L 48,9.0722656 Z"
         sodipodi:nodetypes="cccc" /><path
         id="path14121"
         style="fill:none;stroke:#000000;stroke-width:2;stroke-linejoin:round;stroke-dasharray:none"
         d="m 48.000001,9.0722672 -16,31.9999998 a 16,8 0 0 0 8,6.927734 16,8 0 0 0 16,0 16,8 0 0 0 8,-6.927734 z" /></g><g
       id="g15017"
       transform="translate(0.9999991,-1.0000118)"><path
         style="fill:#1191c0;fill-opacity:1;stroke:#000000;stroke-width:2;stroke-linejoin:round;stroke-dasharray:none"
         d="m 9e-7,32.000001 15.9999991,8 16.000001,-8 L 16,24 Z"
         id="path8965" /><path
         style="fill:#0f7fa8;fill-opacity:1;stroke:#000000;stroke-width:2;stroke-linejoin:round;stroke-dasharray:none"
         d="m 9e-7,32.000001 v 24 l 15.9999991,8 v -24 z"
         id="path8967" /><path
         style="fill:#0d698c;fill-opacity:1;stroke:#000000;stroke-width:2;stroke-linejoin:round;stroke-dasharray:none"
         d="m 32.000001,32.000001 v 24 l -16.000001,8 v -24 z"
         id="path8969" /></g></g></svg>
