<?xml version="1.0" encoding="UTF-8"?>
<!-- Created with Inkscape (http://www.inkscape.org/) -->
<svg width="64" height="64" version="1.1" viewBox="0 0 64 64" xml:space="preserve" xmlns="http://www.w3.org/2000/svg"><circle cx="31" cy="17" r="16" fill="#f00"/><path d="m40 3.9a16 16 0 0 1 2.9 9.1 16 16 0 0 1-16 16 16 16 0 0 1-9.1-2.9 16 16 0 0 0 13 6.9 16 16 0 0 0 16-16 16 16 0 0 0-6.9-13z" fill="#c00000"/><circle cx="31" cy="17" r="16" fill="none" stroke="#000" stroke-linejoin="round" stroke-width="2"/><g transform="translate(-1 2.9)"><path d="m48 9.1-16 32a16 8 0 0 0 8 6.9 16 8 0 0 0 16 0 16 8 0 0 0 8-6.9z" fill="#ffd100"/><path d="m56 48c5-1.4 8-4.1 8-6.9l-16-32z" fill="#c8a400"/><path d="m48 9.1-16 32a16 8 0 0 0 8 6.9 16 8 0 0 0 16 0 16 8 0 0 0 8-6.9z" fill="none" stroke="#000" stroke-linejoin="round" stroke-width="2"/></g><g transform="translate(1 -1)" stroke="#000" stroke-linejoin="round" stroke-width="2"><path d="m9e-7 32 16 8 16-8-16-8z" fill="#1191c0"/><path d="m9e-7 32v24l16 8v-24z" fill="#0f7fa8"/><path d="m32 32v24l-16 8v-24z" fill="#0d698c"/></g></svg>
